<mxfile host="app.diagrams.net" modified="2022-09-26T16:02:07.648Z" agent="5.0 (Macintosh; Intel Mac OS X 10_15_7) AppleWebKit/537.36 (KHTML, like Gecko) Chrome/105.0.0.0 Safari/537.36" etag="_EyUvJhEARoBuAPAQxyr" version="20.3.3" type="github">
  <diagram id="ZTWvXyq-GKM8yy_udWXu" name="Page-1">
    <mxGraphModel dx="1106" dy="564" grid="0" gridSize="10" guides="1" tooltips="1" connect="1" arrows="1" fold="1" page="1" pageScale="1" pageWidth="827" pageHeight="1169" math="0" shadow="0">
      <root>
        <mxCell id="0" />
        <mxCell id="1" parent="0" />
        <mxCell id="68Qubpf2alysa6RBHRhq-2" value="accounts" style="swimlane;fontStyle=0;childLayout=stackLayout;horizontal=1;startSize=30;horizontalStack=0;resizeParent=1;resizeParentMax=0;resizeLast=0;collapsible=1;marginBottom=0;" parent="1" vertex="1">
          <mxGeometry x="197" y="17" width="160" height="120" as="geometry" />
        </mxCell>
        <mxCell id="68Qubpf2alysa6RBHRhq-3" value="Key:name" style="text;strokeColor=none;fillColor=none;align=left;verticalAlign=middle;spacingLeft=4;spacingRight=4;overflow=hidden;points=[[0,0.5],[1,0.5]];portConstraint=eastwest;rotatable=0;" parent="68Qubpf2alysa6RBHRhq-2" vertex="1">
          <mxGeometry y="30" width="160" height="30" as="geometry" />
        </mxCell>
        <mxCell id="68Qubpf2alysa6RBHRhq-30" value="earned:u64" style="text;strokeColor=none;fillColor=none;align=left;verticalAlign=middle;spacingLeft=4;spacingRight=4;overflow=hidden;points=[[0,0.5],[1,0.5]];portConstraint=eastwest;rotatable=0;" parent="68Qubpf2alysa6RBHRhq-2" vertex="1">
          <mxGeometry y="60" width="160" height="30" as="geometry" />
        </mxCell>
        <mxCell id="kfMHzAUpJvRQcDuDT-Uy-34" value="tips:u64" style="text;strokeColor=none;fillColor=none;align=left;verticalAlign=middle;spacingLeft=4;spacingRight=4;overflow=hidden;points=[[0,0.5],[1,0.5]];portConstraint=eastwest;rotatable=0;" vertex="1" parent="68Qubpf2alysa6RBHRhq-2">
          <mxGeometry y="90" width="160" height="30" as="geometry" />
        </mxCell>
        <mxCell id="68Qubpf2alysa6RBHRhq-8" style="edgeStyle=orthogonalEdgeStyle;rounded=0;orthogonalLoop=1;jettySize=auto;html=1;exitX=0.5;exitY=0;exitDx=0;exitDy=0;entryX=1;entryY=0.5;entryDx=0;entryDy=0;" parent="1" source="68Qubpf2alysa6RBHRhq-6" target="68Qubpf2alysa6RBHRhq-3" edge="1">
          <mxGeometry relative="1" as="geometry" />
        </mxCell>
        <mxCell id="68Qubpf2alysa6RBHRhq-9" value="Scope by account key" style="edgeLabel;html=1;align=center;verticalAlign=middle;resizable=0;points=[];" parent="68Qubpf2alysa6RBHRhq-8" vertex="1" connectable="0">
          <mxGeometry x="-0.5927" y="-2" relative="1" as="geometry">
            <mxPoint x="-129" y="2" as="offset" />
          </mxGeometry>
        </mxCell>
        <mxCell id="68Qubpf2alysa6RBHRhq-6" value="channels" style="swimlane;fontStyle=0;childLayout=stackLayout;horizontal=1;startSize=30;horizontalStack=0;resizeParent=1;resizeParentMax=0;resizeLast=0;collapsible=1;marginBottom=0;" parent="1" vertex="1">
          <mxGeometry x="594" y="128" width="160" height="120" as="geometry" />
        </mxCell>
        <mxCell id="68Qubpf2alysa6RBHRhq-7" value="Key:name" style="text;strokeColor=none;fillColor=none;align=left;verticalAlign=middle;spacingLeft=4;spacingRight=4;overflow=hidden;points=[[0,0.5],[1,0.5]];portConstraint=eastwest;rotatable=0;" parent="68Qubpf2alysa6RBHRhq-6" vertex="1">
          <mxGeometry y="30" width="160" height="30" as="geometry" />
        </mxCell>
        <mxCell id="68Qubpf2alysa6RBHRhq-24" value="type:name" style="text;strokeColor=none;fillColor=none;align=left;verticalAlign=middle;spacingLeft=4;spacingRight=4;overflow=hidden;points=[[0,0.5],[1,0.5]];portConstraint=eastwest;rotatable=0;" parent="68Qubpf2alysa6RBHRhq-6" vertex="1">
          <mxGeometry y="60" width="160" height="30" as="geometry" />
        </mxCell>
        <mxCell id="68Qubpf2alysa6RBHRhq-25" value="label:string" style="text;strokeColor=none;fillColor=none;align=left;verticalAlign=middle;spacingLeft=4;spacingRight=4;overflow=hidden;points=[[0,0.5],[1,0.5]];portConstraint=eastwest;rotatable=0;" parent="68Qubpf2alysa6RBHRhq-6" vertex="1">
          <mxGeometry y="90" width="160" height="30" as="geometry" />
        </mxCell>
        <mxCell id="68Qubpf2alysa6RBHRhq-14" style="edgeStyle=orthogonalEdgeStyle;rounded=0;orthogonalLoop=1;jettySize=auto;html=1;exitX=0.5;exitY=0;exitDx=0;exitDy=0;entryX=0;entryY=0.5;entryDx=0;entryDy=0;" parent="1" source="68Qubpf2alysa6RBHRhq-10" target="68Qubpf2alysa6RBHRhq-3" edge="1">
          <mxGeometry relative="1" as="geometry">
            <Array as="points">
              <mxPoint x="104" y="62" />
            </Array>
          </mxGeometry>
        </mxCell>
        <mxCell id="68Qubpf2alysa6RBHRhq-15" value="Scoped by account key" style="edgeLabel;html=1;align=center;verticalAlign=middle;resizable=0;points=[];" parent="68Qubpf2alysa6RBHRhq-14" vertex="1" connectable="0">
          <mxGeometry x="-0.0471" y="-1" relative="1" as="geometry">
            <mxPoint x="-1" y="20" as="offset" />
          </mxGeometry>
        </mxCell>
        <mxCell id="68Qubpf2alysa6RBHRhq-10" value="userinfo" style="swimlane;fontStyle=0;childLayout=stackLayout;horizontal=1;startSize=30;horizontalStack=0;resizeParent=1;resizeParentMax=0;resizeLast=0;collapsible=1;marginBottom=0;" parent="1" vertex="1">
          <mxGeometry x="25" y="184" width="160" height="90" as="geometry" />
        </mxCell>
        <mxCell id="68Qubpf2alysa6RBHRhq-11" value="key:name" style="text;strokeColor=none;fillColor=none;align=left;verticalAlign=middle;spacingLeft=4;spacingRight=4;overflow=hidden;points=[[0,0.5],[1,0.5]];portConstraint=eastwest;rotatable=0;" parent="68Qubpf2alysa6RBHRhq-10" vertex="1">
          <mxGeometry y="30" width="160" height="30" as="geometry" />
        </mxCell>
        <mxCell id="68Qubpf2alysa6RBHRhq-12" value="value:string" style="text;strokeColor=none;fillColor=none;align=left;verticalAlign=middle;spacingLeft=4;spacingRight=4;overflow=hidden;points=[[0,0.5],[1,0.5]];portConstraint=eastwest;rotatable=0;" parent="68Qubpf2alysa6RBHRhq-10" vertex="1">
          <mxGeometry y="60" width="160" height="30" as="geometry" />
        </mxCell>
        <mxCell id="68Qubpf2alysa6RBHRhq-28" style="edgeStyle=orthogonalEdgeStyle;rounded=0;orthogonalLoop=1;jettySize=auto;html=1;exitX=0.5;exitY=0;exitDx=0;exitDy=0;entryX=0;entryY=0.5;entryDx=0;entryDy=0;" parent="1" source="68Qubpf2alysa6RBHRhq-16" target="68Qubpf2alysa6RBHRhq-7" edge="1">
          <mxGeometry relative="1" as="geometry" />
        </mxCell>
        <mxCell id="68Qubpf2alysa6RBHRhq-29" value="scoped by channel key" style="edgeLabel;html=1;align=center;verticalAlign=middle;resizable=0;points=[];" parent="68Qubpf2alysa6RBHRhq-28" vertex="1" connectable="0">
          <mxGeometry x="0.3244" y="-2" relative="1" as="geometry">
            <mxPoint x="-24" y="-2" as="offset" />
          </mxGeometry>
        </mxCell>
        <mxCell id="68Qubpf2alysa6RBHRhq-16" value="posts" style="swimlane;fontStyle=0;childLayout=stackLayout;horizontal=1;startSize=30;horizontalStack=0;resizeParent=1;resizeParentMax=0;resizeLast=0;collapsible=1;marginBottom=0;" parent="1" vertex="1">
          <mxGeometry x="314" y="278" width="160" height="390" as="geometry" />
        </mxCell>
        <mxCell id="68Qubpf2alysa6RBHRhq-17" value="key:u64" style="text;strokeColor=none;fillColor=none;align=left;verticalAlign=middle;spacingLeft=4;spacingRight=4;overflow=hidden;points=[[0,0.5],[1,0.5]];portConstraint=eastwest;rotatable=0;" parent="68Qubpf2alysa6RBHRhq-16" vertex="1">
          <mxGeometry y="30" width="160" height="30" as="geometry" />
        </mxCell>
        <mxCell id="kfMHzAUpJvRQcDuDT-Uy-22" value="type:name" style="text;strokeColor=none;fillColor=none;align=left;verticalAlign=middle;spacingLeft=4;spacingRight=4;overflow=hidden;points=[[0,0.5],[1,0.5]];portConstraint=eastwest;rotatable=0;" vertex="1" parent="68Qubpf2alysa6RBHRhq-16">
          <mxGeometry y="60" width="160" height="30" as="geometry" />
        </mxCell>
        <mxCell id="68Qubpf2alysa6RBHRhq-18" value="content:string" style="text;strokeColor=none;fillColor=none;align=left;verticalAlign=middle;spacingLeft=4;spacingRight=4;overflow=hidden;points=[[0,0.5],[1,0.5]];portConstraint=eastwest;rotatable=0;" parent="68Qubpf2alysa6RBHRhq-16" vertex="1">
          <mxGeometry y="90" width="160" height="30" as="geometry" />
        </mxCell>
        <mxCell id="68Qubpf2alysa6RBHRhq-19" value="created:u32" style="text;strokeColor=none;fillColor=none;align=left;verticalAlign=middle;spacingLeft=4;spacingRight=4;overflow=hidden;points=[[0,0.5],[1,0.5]];portConstraint=eastwest;rotatable=0;" parent="68Qubpf2alysa6RBHRhq-16" vertex="1">
          <mxGeometry y="120" width="160" height="30" as="geometry" />
        </mxCell>
        <mxCell id="68Qubpf2alysa6RBHRhq-20" value="updated:u32" style="text;strokeColor=none;fillColor=none;align=left;verticalAlign=middle;spacingLeft=4;spacingRight=4;overflow=hidden;points=[[0,0.5],[1,0.5]];portConstraint=eastwest;rotatable=0;" parent="68Qubpf2alysa6RBHRhq-16" vertex="1">
          <mxGeometry y="150" width="160" height="30" as="geometry" />
        </mxCell>
        <mxCell id="68Qubpf2alysa6RBHRhq-22" style="edgeStyle=orthogonalEdgeStyle;rounded=0;orthogonalLoop=1;jettySize=auto;html=1;exitX=0;exitY=0.5;exitDx=0;exitDy=0;entryX=0;entryY=0.5;entryDx=0;entryDy=0;" parent="68Qubpf2alysa6RBHRhq-16" source="68Qubpf2alysa6RBHRhq-21" target="68Qubpf2alysa6RBHRhq-17" edge="1">
          <mxGeometry relative="1" as="geometry" />
        </mxCell>
        <mxCell id="kfMHzAUpJvRQcDuDT-Uy-1" value="Link" style="edgeLabel;html=1;align=center;verticalAlign=middle;resizable=0;points=[];" vertex="1" connectable="0" parent="68Qubpf2alysa6RBHRhq-22">
          <mxGeometry x="-0.15" y="4" relative="1" as="geometry">
            <mxPoint as="offset" />
          </mxGeometry>
        </mxCell>
        <mxCell id="68Qubpf2alysa6RBHRhq-21" value="parentpost?:u64" style="text;strokeColor=none;fillColor=none;align=left;verticalAlign=middle;spacingLeft=4;spacingRight=4;overflow=hidden;points=[[0,0.5],[1,0.5]];portConstraint=eastwest;rotatable=0;" parent="68Qubpf2alysa6RBHRhq-16" vertex="1">
          <mxGeometry y="180" width="160" height="30" as="geometry" />
        </mxCell>
        <mxCell id="kfMHzAUpJvRQcDuDT-Uy-19" value="sharescount?:u32" style="text;strokeColor=none;fillColor=none;align=left;verticalAlign=middle;spacingLeft=4;spacingRight=4;overflow=hidden;points=[[0,0.5],[1,0.5]];portConstraint=eastwest;rotatable=0;" vertex="1" parent="68Qubpf2alysa6RBHRhq-16">
          <mxGeometry y="210" width="160" height="30" as="geometry" />
        </mxCell>
        <mxCell id="kfMHzAUpJvRQcDuDT-Uy-20" value="likecount?:u32" style="text;strokeColor=none;fillColor=none;align=left;verticalAlign=middle;spacingLeft=4;spacingRight=4;overflow=hidden;points=[[0,0.5],[1,0.5]];portConstraint=eastwest;rotatable=0;" vertex="1" parent="68Qubpf2alysa6RBHRhq-16">
          <mxGeometry y="240" width="160" height="30" as="geometry" />
        </mxCell>
        <mxCell id="kfMHzAUpJvRQcDuDT-Uy-24" value="tipped:u64" style="text;strokeColor=none;fillColor=none;align=left;verticalAlign=middle;spacingLeft=4;spacingRight=4;overflow=hidden;points=[[0,0.5],[1,0.5]];portConstraint=eastwest;rotatable=0;" vertex="1" parent="68Qubpf2alysa6RBHRhq-16">
          <mxGeometry y="270" width="160" height="30" as="geometry" />
        </mxCell>
        <mxCell id="kfMHzAUpJvRQcDuDT-Uy-35" value="reactions:[3,0,1]" style="text;strokeColor=none;fillColor=none;align=left;verticalAlign=middle;spacingLeft=4;spacingRight=4;overflow=hidden;points=[[0,0.5],[1,0.5]];portConstraint=eastwest;rotatable=0;" vertex="1" parent="68Qubpf2alysa6RBHRhq-16">
          <mxGeometry y="300" width="160" height="30" as="geometry" />
        </mxCell>
        <mxCell id="kfMHzAUpJvRQcDuDT-Uy-36" value="pinned:u8" style="text;strokeColor=none;fillColor=none;align=left;verticalAlign=middle;spacingLeft=4;spacingRight=4;overflow=hidden;points=[[0,0.5],[1,0.5]];portConstraint=eastwest;rotatable=0;" vertex="1" parent="68Qubpf2alysa6RBHRhq-16">
          <mxGeometry y="330" width="160" height="30" as="geometry" />
        </mxCell>
        <mxCell id="kfMHzAUpJvRQcDuDT-Uy-37" value="boosted:u8" style="text;strokeColor=none;fillColor=none;align=left;verticalAlign=middle;spacingLeft=4;spacingRight=4;overflow=hidden;points=[[0,0.5],[1,0.5]];portConstraint=eastwest;rotatable=0;" vertex="1" parent="68Qubpf2alysa6RBHRhq-16">
          <mxGeometry y="360" width="160" height="30" as="geometry" />
        </mxCell>
        <mxCell id="kfMHzAUpJvRQcDuDT-Uy-11" style="edgeStyle=orthogonalEdgeStyle;rounded=0;orthogonalLoop=1;jettySize=auto;html=1;exitX=0.5;exitY=0;exitDx=0;exitDy=0;entryX=1;entryY=0.5;entryDx=0;entryDy=0;" edge="1" parent="1" source="kfMHzAUpJvRQcDuDT-Uy-2" target="68Qubpf2alysa6RBHRhq-17">
          <mxGeometry relative="1" as="geometry" />
        </mxCell>
        <mxCell id="kfMHzAUpJvRQcDuDT-Uy-12" value="Scoped by post key" style="edgeLabel;html=1;align=center;verticalAlign=middle;resizable=0;points=[];" vertex="1" connectable="0" parent="kfMHzAUpJvRQcDuDT-Uy-11">
          <mxGeometry x="0.6078" y="4" relative="1" as="geometry">
            <mxPoint x="128" y="41" as="offset" />
          </mxGeometry>
        </mxCell>
        <mxCell id="kfMHzAUpJvRQcDuDT-Uy-2" value="media" style="swimlane;fontStyle=0;childLayout=stackLayout;horizontal=1;startSize=30;horizontalStack=0;resizeParent=1;resizeParentMax=0;resizeLast=0;collapsible=1;marginBottom=0;" vertex="1" parent="1">
          <mxGeometry x="554" y="408" width="160" height="150" as="geometry" />
        </mxCell>
        <mxCell id="kfMHzAUpJvRQcDuDT-Uy-3" value="key:u64" style="text;strokeColor=none;fillColor=none;align=left;verticalAlign=middle;spacingLeft=4;spacingRight=4;overflow=hidden;points=[[0,0.5],[1,0.5]];portConstraint=eastwest;rotatable=0;" vertex="1" parent="kfMHzAUpJvRQcDuDT-Uy-2">
          <mxGeometry y="30" width="160" height="30" as="geometry" />
        </mxCell>
        <mxCell id="kfMHzAUpJvRQcDuDT-Uy-4" value="url:string" style="text;strokeColor=none;fillColor=none;align=left;verticalAlign=middle;spacingLeft=4;spacingRight=4;overflow=hidden;points=[[0,0.5],[1,0.5]];portConstraint=eastwest;rotatable=0;" vertex="1" parent="kfMHzAUpJvRQcDuDT-Uy-2">
          <mxGeometry y="60" width="160" height="30" as="geometry" />
        </mxCell>
        <mxCell id="kfMHzAUpJvRQcDuDT-Uy-5" value="type:string" style="text;strokeColor=none;fillColor=none;align=left;verticalAlign=middle;spacingLeft=4;spacingRight=4;overflow=hidden;points=[[0,0.5],[1,0.5]];portConstraint=eastwest;rotatable=0;" vertex="1" parent="kfMHzAUpJvRQcDuDT-Uy-2">
          <mxGeometry y="90" width="160" height="30" as="geometry" />
        </mxCell>
        <mxCell id="kfMHzAUpJvRQcDuDT-Uy-10" value="alt:string" style="text;strokeColor=none;fillColor=none;align=left;verticalAlign=middle;spacingLeft=4;spacingRight=4;overflow=hidden;points=[[0,0.5],[1,0.5]];portConstraint=eastwest;rotatable=0;" vertex="1" parent="kfMHzAUpJvRQcDuDT-Uy-2">
          <mxGeometry y="120" width="160" height="30" as="geometry" />
        </mxCell>
        <mxCell id="kfMHzAUpJvRQcDuDT-Uy-13" value="earning" style="swimlane;fontStyle=0;childLayout=stackLayout;horizontal=1;startSize=30;horizontalStack=0;resizeParent=1;resizeParentMax=0;resizeLast=0;collapsible=1;marginBottom=0;" vertex="1" parent="1">
          <mxGeometry x="53" y="683" width="160" height="90" as="geometry" />
        </mxCell>
        <mxCell id="kfMHzAUpJvRQcDuDT-Uy-14" value="key:name" style="text;strokeColor=none;fillColor=none;align=left;verticalAlign=middle;spacingLeft=4;spacingRight=4;overflow=hidden;points=[[0,0.5],[1,0.5]];portConstraint=eastwest;rotatable=0;" vertex="1" parent="kfMHzAUpJvRQcDuDT-Uy-13">
          <mxGeometry y="30" width="160" height="30" as="geometry" />
        </mxCell>
        <mxCell id="kfMHzAUpJvRQcDuDT-Uy-15" value="value:u32" style="text;strokeColor=none;fillColor=none;align=left;verticalAlign=middle;spacingLeft=4;spacingRight=4;overflow=hidden;points=[[0,0.5],[1,0.5]];portConstraint=eastwest;rotatable=0;" vertex="1" parent="kfMHzAUpJvRQcDuDT-Uy-13">
          <mxGeometry y="60" width="160" height="30" as="geometry" />
        </mxCell>
        <mxCell id="kfMHzAUpJvRQcDuDT-Uy-21" style="edgeStyle=orthogonalEdgeStyle;rounded=0;orthogonalLoop=1;jettySize=auto;html=1;exitX=0;exitY=0.5;exitDx=0;exitDy=0;entryX=1;entryY=0.5;entryDx=0;entryDy=0;" edge="1" parent="1" source="kfMHzAUpJvRQcDuDT-Uy-18" target="kfMHzAUpJvRQcDuDT-Uy-14">
          <mxGeometry relative="1" as="geometry" />
        </mxCell>
        <mxCell id="kfMHzAUpJvRQcDuDT-Uy-18" value="Table that describe the earning for each type of post (post,blog post ...)&lt;br&gt;Example:&lt;br&gt;- Name(&quot;post&quot;)&amp;nbsp;&lt;br&gt;- 30" style="text;html=1;strokeColor=none;fillColor=none;align=left;verticalAlign=top;whiteSpace=wrap;rounded=0;" vertex="1" parent="1">
          <mxGeometry x="272" y="683" width="160" height="90" as="geometry" />
        </mxCell>
        <mxCell id="kfMHzAUpJvRQcDuDT-Uy-23" style="edgeStyle=orthogonalEdgeStyle;rounded=0;orthogonalLoop=1;jettySize=auto;html=1;exitX=0;exitY=0.5;exitDx=0;exitDy=0;entryX=0.5;entryY=0;entryDx=0;entryDy=0;" edge="1" parent="1" source="kfMHzAUpJvRQcDuDT-Uy-22" target="kfMHzAUpJvRQcDuDT-Uy-13">
          <mxGeometry relative="1" as="geometry" />
        </mxCell>
        <mxCell id="kfMHzAUpJvRQcDuDT-Uy-30" style="edgeStyle=orthogonalEdgeStyle;rounded=0;orthogonalLoop=1;jettySize=auto;html=1;exitX=0.5;exitY=0;exitDx=0;exitDy=0;entryX=1;entryY=0.5;entryDx=0;entryDy=0;" edge="1" parent="1" source="kfMHzAUpJvRQcDuDT-Uy-25" target="68Qubpf2alysa6RBHRhq-17">
          <mxGeometry relative="1" as="geometry" />
        </mxCell>
        <mxCell id="kfMHzAUpJvRQcDuDT-Uy-31" value="Scoped by post&amp;nbsp; key" style="edgeLabel;html=1;align=center;verticalAlign=middle;resizable=0;points=[];" vertex="1" connectable="0" parent="kfMHzAUpJvRQcDuDT-Uy-30">
          <mxGeometry x="-0.4589" y="-1" relative="1" as="geometry">
            <mxPoint as="offset" />
          </mxGeometry>
        </mxCell>
        <mxCell id="kfMHzAUpJvRQcDuDT-Uy-25" value="tips" style="swimlane;fontStyle=0;childLayout=stackLayout;horizontal=1;startSize=30;horizontalStack=0;resizeParent=1;resizeParentMax=0;resizeLast=0;collapsible=1;marginBottom=0;" vertex="1" parent="1">
          <mxGeometry x="812" y="367" width="160" height="180" as="geometry" />
        </mxCell>
        <mxCell id="kfMHzAUpJvRQcDuDT-Uy-26" value="key:u64" style="text;strokeColor=none;fillColor=none;align=left;verticalAlign=middle;spacingLeft=4;spacingRight=4;overflow=hidden;points=[[0,0.5],[1,0.5]];portConstraint=eastwest;rotatable=0;" vertex="1" parent="kfMHzAUpJvRQcDuDT-Uy-25">
          <mxGeometry y="30" width="160" height="30" as="geometry" />
        </mxCell>
        <mxCell id="kfMHzAUpJvRQcDuDT-Uy-27" value="amount:u64" style="text;strokeColor=none;fillColor=none;align=left;verticalAlign=middle;spacingLeft=4;spacingRight=4;overflow=hidden;points=[[0,0.5],[1,0.5]];portConstraint=eastwest;rotatable=0;" vertex="1" parent="kfMHzAUpJvRQcDuDT-Uy-25">
          <mxGeometry y="60" width="160" height="30" as="geometry" />
        </mxCell>
        <mxCell id="kfMHzAUpJvRQcDuDT-Uy-29" value="symbol:Symbol" style="text;strokeColor=none;fillColor=none;align=left;verticalAlign=middle;spacingLeft=4;spacingRight=4;overflow=hidden;points=[[0,0.5],[1,0.5]];portConstraint=eastwest;rotatable=0;" vertex="1" parent="kfMHzAUpJvRQcDuDT-Uy-25">
          <mxGeometry y="90" width="160" height="30" as="geometry" />
        </mxCell>
        <mxCell id="kfMHzAUpJvRQcDuDT-Uy-32" value="from:name" style="text;strokeColor=none;fillColor=none;align=left;verticalAlign=middle;spacingLeft=4;spacingRight=4;overflow=hidden;points=[[0,0.5],[1,0.5]];portConstraint=eastwest;rotatable=0;" vertex="1" parent="kfMHzAUpJvRQcDuDT-Uy-25">
          <mxGeometry y="120" width="160" height="30" as="geometry" />
        </mxCell>
        <mxCell id="kfMHzAUpJvRQcDuDT-Uy-33" value="memo:string" style="text;strokeColor=none;fillColor=none;align=left;verticalAlign=middle;spacingLeft=4;spacingRight=4;overflow=hidden;points=[[0,0.5],[1,0.5]];portConstraint=eastwest;rotatable=0;" vertex="1" parent="kfMHzAUpJvRQcDuDT-Uy-25">
          <mxGeometry y="150" width="160" height="30" as="geometry" />
        </mxCell>
      </root>
    </mxGraphModel>
  </diagram>
</mxfile>
